# xmcd CD database file
#
# Track frame offsets:
#	150
#	16510
#	34841
#	53797
#	71740
#	89362
#	108513
#	132005
#	154286
#	171597
#	188209
#	207871
#
# Disc length: 3044 seconds
#
# Revision: 0
# Processed by: cddbd v1.5.2PL0 Copyright (c) Steve Scherf et al.
# Submitted via: CDex 1.70beta2
#
DISCID=a20be20c
DTITLE=Jacob Brass - a stubborn child
DYEAR=2011
DGENRE=Blues
TTITLE0=save me
TTITLE1=sunlight
TTITLE2=your eyes
TTITLE3=quietly
TTITLE4=the golden times
TTITLE5=pipe dream
TTITLE6=a stubborn child
TTITLE7=a bad girl´s heart
TTITLE8=norway
TTITLE9=she´s back in town
TTITLE10=day 221
TTITLE11=there
EXTD=YEAR: 2011
EXTT0=
EXTT1=
EXTT2=
EXTT3=
EXTT4=
EXTT5=
EXTT6=
EXTT7=
EXTT8=
EXTT9=
EXTT10=
EXTT11=
PLAYORDER=
